<svg id="Layer_1" data-name="Layer 1" xmlns="http://www.w3.org/2000/svg" viewBox="0 0 534.33 52.52"><defs><style>.cls-1{fill:red;}.cls-2{fill:#051b7d;}.cls-3{fill:#101972;}.cls-4{fill:#f05a1f;}</style></defs><title>logo mrt + font</title><polygon class="cls-1" points="77.73 2.19 61.61 2.19 102.5 27.16 62.25 52.27 77.86 52.27 118.58 27.23 77.73 2.19"/><polygon class="cls-1" points="37.44 2.19 29.99 2.19 70.68 27.46 30.05 52.27 37.58 52.27 78.77 27.23 37.44 2.19"/><polygon class="cls-2" points="43.32 2.19 59.43 2.19 18.54 27.16 58.79 52.27 43.18 52.27 2.46 27.23 43.32 2.19"/><polygon class="cls-2" points="83.6 2.19 91.06 2.19 50.37 27.46 90.99 52.27 83.46 52.27 42.27 27.23 83.6 2.19"/><path class="cls-3" d="M139.58,22.35V14a2.8,2.8,0,0,0-.78-2.16,3,3,0,0,0-2.12-.72,4.22,4.22,0,0,0-1,.13,4.32,4.32,0,0,0-.91.36,3.78,3.78,0,0,0-.74.53,2.44,2.44,0,0,0-.5.61l2,1.71a2.23,2.23,0,0,0-1.13.8,2.51,2.51,0,0,0-.38,1.45v5.64h-3.12V16.74a2.62,2.62,0,0,1,.36-1.37,2.73,2.73,0,0,1,.91-.94l-1.94-1.58a4.74,4.74,0,0,1,.82-1.57,6.83,6.83,0,0,1,1.43-1.35A7.46,7.46,0,0,1,134.42,9a7.34,7.34,0,0,1,2.33-.36,7.57,7.57,0,0,1,2.54.39,5.21,5.21,0,0,1,1.86,1.11,4.68,4.68,0,0,1,1.16,1.7A5.9,5.9,0,0,1,142.7,14v8.35Z"/><path class="cls-3" d="M151.53,22.35V13.71c0-1.72-.72-2.59-2.16-2.59a6,6,0,0,0-2.12.39,8.94,8.94,0,0,0-1.86.91l-.79-2.23a10.16,10.16,0,0,1,2.29-1.11,8.39,8.39,0,0,1,2.75-.45A4.82,4.82,0,0,1,153.38,10a5.4,5.4,0,0,1,1.27,3.79v8.54Z"/><path class="cls-3" d="M162,20.15a4.24,4.24,0,0,0,1.94-.36,1.18,1.18,0,0,0,.68-1.11,1.12,1.12,0,0,0-.25-.74,2.15,2.15,0,0,0-.67-.54,6.81,6.81,0,0,0-.94-.41l-1-.35c-.59-.19-1.16-.4-1.69-.63a5.77,5.77,0,0,1-1.41-.86,4.05,4.05,0,0,1-1-1.18,3.65,3.65,0,0,1-.35-1.65,2.94,2.94,0,0,1,.37-1.46,3.62,3.62,0,0,1,1-1.18,5.3,5.3,0,0,1,1.6-.78,7.17,7.17,0,0,1,2-.27A9.85,9.85,0,0,1,165.1,9a11.66,11.66,0,0,1,2.18.87l-.82,2.2a7.06,7.06,0,0,0-1.88-.7,9.44,9.44,0,0,0-2-.21,3.72,3.72,0,0,0-1.54.28.93.93,0,0,0-.62.9,1.2,1.2,0,0,0,.79,1.09,18.5,18.5,0,0,0,2.06.83,15.19,15.19,0,0,1,1.83.72,5.61,5.61,0,0,1,1.4.9,3.37,3.37,0,0,1,.9,1.22,4.08,4.08,0,0,1,.31,1.67,3.65,3.65,0,0,1-.33,1.57,3.51,3.51,0,0,1-1,1.24,4.87,4.87,0,0,1-1.68.81,8.38,8.38,0,0,1-2.38.29,11.31,11.31,0,0,1-2.67-.3,8.2,8.2,0,0,1-2.2-.85l.75-2.38a8.73,8.73,0,0,0,1.87.76A7.56,7.56,0,0,0,162,20.15Z"/><path class="cls-3" d="M174.48,20.15a4.23,4.23,0,0,0,1.93-.36,1.17,1.17,0,0,0,.68-1.11,1.12,1.12,0,0,0-.25-.74,2.15,2.15,0,0,0-.67-.54,6.32,6.32,0,0,0-.94-.41l-1-.35c-.59-.19-1.15-.4-1.69-.63a5.7,5.7,0,0,1-1.4-.86,3.9,3.9,0,0,1-1-1.18,3.53,3.53,0,0,1-.36-1.65,2.94,2.94,0,0,1,.37-1.46,3.74,3.74,0,0,1,1-1.18,5.3,5.3,0,0,1,1.6-.78,7.17,7.17,0,0,1,2-.27,10,10,0,0,1,2.7.33,11.57,11.57,0,0,1,2.17.87l-.82,2.2a7.06,7.06,0,0,0-1.88-.7,9.37,9.37,0,0,0-2-.21,3.64,3.64,0,0,0-1.53.28.92.92,0,0,0-.63.9,1.22,1.22,0,0,0,.79,1.09,18,18,0,0,0,2.07.83,15,15,0,0,1,1.82.72,5.87,5.87,0,0,1,1.41.9,3.49,3.49,0,0,1,.9,1.22,4.25,4.25,0,0,1,.31,1.67,3.51,3.51,0,0,1-.34,1.57,3.4,3.4,0,0,1-1,1.24,4.78,4.78,0,0,1-1.68.81,8.35,8.35,0,0,1-2.37.29,11.4,11.4,0,0,1-2.68-.3,8.13,8.13,0,0,1-2.19-.85l.74-2.38a9,9,0,0,0,1.87.76A7.63,7.63,0,0,0,174.48,20.15Z"/><path class="cls-3" d="M186,19.52q0,.39.36.39h1.39v2.44h-2.11a2.78,2.78,0,0,1-2.08-.7,2.71,2.71,0,0,1-.68-1.94v-3a2.62,2.62,0,0,1,.36-1.37,2.73,2.73,0,0,1,.91-.94l-1.94-1.58a4.59,4.59,0,0,1,.83-1.57,6.54,6.54,0,0,1,1.42-1.35A7.46,7.46,0,0,1,186.4,9a7.34,7.34,0,0,1,2.33-.36,7.78,7.78,0,0,1,2.56.39,5.25,5.25,0,0,1,1.87,1.11,4.66,4.66,0,0,1,1.15,1.7,5.7,5.7,0,0,1,.4,2.17v8.35h-3.12V14a2.8,2.8,0,0,0-.79-2.16,3.06,3.06,0,0,0-2.14-.72,4.22,4.22,0,0,0-1,.13,4.54,4.54,0,0,0-.91.36,3.78,3.78,0,0,0-.74.53,2.39,2.39,0,0,0-.49.61l2,1.71a2.27,2.27,0,0,0-1.13.8,2.51,2.51,0,0,0-.38,1.45Z"/><path class="cls-3" d="M199,22.35V7a5.93,5.93,0,0,1,.54-2.67,3.6,3.6,0,0,1,1.62-1.63h-4.63V.25h7.89V2.51a3.34,3.34,0,0,0-1.74,1.65,6,6,0,0,0-.54,2.64V22.35Z"/><path class="cls-3" d="M214.46,9.59l1.78,5.92a15.58,15.58,0,0,1,.44,1.89c.12.69.24,1.55.37,2.55h.07c0-.94,0-1.75,0-2.42s.09-1.34.17-2l1.13-11.16h2.9l-2.16,18h-3.33L214,16.21c-.19-.67-.38-1.37-.55-2.1a16.78,16.78,0,0,1-.39-2.17H213c-.08.72-.18,1.44-.3,2.17a16.94,16.94,0,0,1-.47,2.1l-1.89,6.14h-3.43L204.6,8.91h3l1.06,6.6c.08.47.16,1.06.23,1.77s.11,1.6.13,2.67h.07c.05-.52.11-1,.17-1.42s.13-.82.2-1.17l.22-1c.07-.3.15-.59.23-.88l1.61-5.92Z"/><path class="cls-3" d="M232.58,9.59l1.78,5.92a15.58,15.58,0,0,1,.44,1.89c.12.69.24,1.55.37,2.55h.07c0-.94,0-1.75,0-2.42s.09-1.34.17-2l1.13-11.16h2.9l-2.16,18H234l-1.9-6.14c-.19-.67-.38-1.37-.55-2.1a16.78,16.78,0,0,1-.39-2.17h-.07c-.08.72-.18,1.44-.3,2.17a16.94,16.94,0,0,1-.47,2.1l-1.89,6.14H225L222.72,8.91h3l1.06,6.6c.08.47.16,1.06.23,1.77s.11,1.6.13,2.67h.07c.05-.52.11-1,.17-1.42s.13-.82.2-1.17l.22-1c.07-.3.15-.59.23-.88l1.61-5.92Z"/><path class="cls-3" d="M231.24,4.47q0,.36.33.36h2.81v2.4h-4.27a1.28,1.28,0,0,1-.9-.31,1.1,1.1,0,0,1-.35-.86v-.6c0-.24-.11-.36-.34-.36h-1.41V2.63h2.57a1.8,1.8,0,0,1,1.14.32,1.22,1.22,0,0,1,.42,1Z"/><path class="cls-3" d="M247.51,22.35V13.71c0-1.72-.72-2.59-2.16-2.59a6.07,6.07,0,0,0-2.13.39,9.46,9.46,0,0,0-1.86.91l-.79-2.23a10.37,10.37,0,0,1,2.29-1.11,8.43,8.43,0,0,1,2.75-.45A4.82,4.82,0,0,1,249.36,10a5.44,5.44,0,0,1,1.27,3.79v8.54Z"/><path class="cls-3" d="M256.75,17.89a2.35,2.35,0,0,0,.57,1.75,2.41,2.41,0,0,0,1.73.55,2.29,2.29,0,0,0,1.73-.6,2.67,2.67,0,0,0,.57-1.89V8.91h3.13v8.76a5,5,0,0,1-1.31,3.66,5.6,5.6,0,0,1-4.12,1.31,5.74,5.74,0,0,1-4.11-1.25,4.59,4.59,0,0,1-1.31-3.52V16.62a2.74,2.74,0,0,1,.33-1.36,8.6,8.6,0,0,1,.75-1.08c.27-.33.52-.65.74-1a1.59,1.59,0,0,0,.34-1v-.34a.49.49,0,0,0-.55-.55h-1.47V8.91h1.85a5.51,5.51,0,0,1,1.54.18,2.44,2.44,0,0,1,1,.52,1.91,1.91,0,0,1,.5.85,4.32,4.32,0,0,1,.14,1.19v.6a2.33,2.33,0,0,1-.31,1.22,9.11,9.11,0,0,1-.69,1,10.64,10.64,0,0,0-.7,1,2.09,2.09,0,0,0-.31,1.13Z"/><path class="cls-3" d="M271,17.63a2.69,2.69,0,0,0,.57,1.94,2.24,2.24,0,0,0,1.63.58,3.39,3.39,0,0,0,1.94-.62A3.79,3.79,0,0,0,276.45,18v-9h3.12V22.35h-2.78l-.34-1.65a4.06,4.06,0,0,1-.68.71,5.48,5.48,0,0,1-2.08,1.06,5.27,5.27,0,0,1-4.64-1,5,5,0,0,1-1.21-3.7V8.91H271Z"/><path class="cls-3" d="M291.12,22.35V16.47h-2.93a5,5,0,0,0-2.15.4,1.46,1.46,0,0,0-.8,1.45,1.72,1.72,0,0,0,.55,1.36,2,2,0,0,0,1.37.49,5.88,5.88,0,0,0,.9-.08,3.65,3.65,0,0,0,.94-.33l.51,2.28a5.53,5.53,0,0,1-1.29.41,7.85,7.85,0,0,1-1.4.12,6.2,6.2,0,0,1-1.82-.26,4.1,4.1,0,0,1-1.47-.8,3.62,3.62,0,0,1-1-1.32,4.38,4.38,0,0,1-.36-1.84,3.61,3.61,0,0,1,1.55-3.26,8.61,8.61,0,0,1,4.69-1h2.69v-.45a2.87,2.87,0,0,0-.17-1,2.22,2.22,0,0,0-.51-.83,2.51,2.51,0,0,0-.85-.58,3.19,3.19,0,0,0-1.21-.21,7.12,7.12,0,0,0-2.6.43,8.9,8.9,0,0,0-2.08,1.13l-1-2.16a9.46,9.46,0,0,1,2.43-1.25,9.69,9.69,0,0,1,3.37-.55,6.71,6.71,0,0,1,1.1.09,4.55,4.55,0,0,1,.94.27l.82-1h3.43l-2,2.35a5.16,5.16,0,0,1,1,1.51,4.62,4.62,0,0,1,.34,1.78v8.73Z"/><path class="cls-3" d="M291.4,7.23V2.58h2.88V7.23Z"/><path class="cls-3" d="M300.26,22.35,296.2,8.91h3.07l3.29,11h.27a2,2,0,0,0,1.1-.34,3.3,3.3,0,0,0,.95-.95,4.81,4.81,0,0,0,.66-1.48,7.36,7.36,0,0,0,.24-1.94,5.2,5.2,0,0,0-.71-3.1,2.18,2.18,0,0,0-1.81-.93,5,5,0,0,0-1.61.31l-.46-2.28a4.22,4.22,0,0,1,1.17-.39,7.31,7.31,0,0,1,1.43-.13,4.68,4.68,0,0,1,2,.43,4.43,4.43,0,0,1,1.62,1.27,6.14,6.14,0,0,1,1.08,2.05,8.73,8.73,0,0,1,.4,2.77,9.17,9.17,0,0,1-.46,3,6.56,6.56,0,0,1-1.28,2.26,5.51,5.51,0,0,1-2,1.43,6.05,6.05,0,0,1-2.47.49Z"/><path class="cls-3" d="M320.27,8.91h3.12v8.62a5.34,5.34,0,0,1-1.22,3.83,5,5,0,0,1-4.68,1.1,6.55,6.55,0,0,1-1.12-.45,5.72,5.72,0,0,1-.92-.63,4.73,4.73,0,0,1-.67-.68l-.34,1.65h-2.78V8.91h3.12V18A3.94,3.94,0,0,0,317,20a3.14,3.14,0,0,0,1,.17q2.25,0,2.25-2.76Z"/><path class="cls-3" d="M326.51,19a9.77,9.77,0,0,0,1.79.82,6.15,6.15,0,0,0,2,.34A3.15,3.15,0,0,0,332.91,19a5.39,5.39,0,0,0,.9-3.38,5.15,5.15,0,0,0-.95-3.42,3.29,3.29,0,0,0-2.6-1.09,5.45,5.45,0,0,0-1.93.34,7.61,7.61,0,0,0-1.82,1l-.72-2.35A8.89,8.89,0,0,1,328,9a8.47,8.47,0,0,1,2.54-.39,6.12,6.12,0,0,1,4.69,1.77,7.14,7.14,0,0,1,1.67,5.07q0,3.6-1.69,5.38a6.12,6.12,0,0,1-4.69,1.79,10.83,10.83,0,0,1-2.68-.31,6.21,6.21,0,0,1-2.08-.91Z"/><path class="cls-3" d="M347.83,22.35V16.47H344.9a5,5,0,0,0-2.15.4,1.46,1.46,0,0,0-.8,1.45,1.72,1.72,0,0,0,.55,1.36,2,2,0,0,0,1.37.49,5.88,5.88,0,0,0,.9-.08,3.65,3.65,0,0,0,.94-.33l.51,2.28a5.53,5.53,0,0,1-1.29.41,7.77,7.77,0,0,1-1.4.12,6.2,6.2,0,0,1-1.82-.26,4.19,4.19,0,0,1-1.47-.8,3.74,3.74,0,0,1-1-1.32,4.38,4.38,0,0,1-.36-1.84,3.61,3.61,0,0,1,1.55-3.26,8.61,8.61,0,0,1,4.69-1h2.69v-.45a2.65,2.65,0,0,0-.66-1.87,2.7,2.7,0,0,0-2.08-.72,7.12,7.12,0,0,0-2.6.43,8.9,8.9,0,0,0-2.08,1.13l-1-2.16a9.46,9.46,0,0,1,2.43-1.25,9.69,9.69,0,0,1,3.37-.55,7.1,7.1,0,0,1,2.34.36,5.22,5.22,0,0,1,1.78,1,4.49,4.49,0,0,1,1.13,1.58,5.2,5.2,0,0,1,.39,2v8.73Z"/><path class="cls-3" d="M364.77,17.67a4.92,4.92,0,0,1-1.32,3.66,5.64,5.64,0,0,1-4.13,1.31,5.89,5.89,0,0,1-4.14-1.23,4.66,4.66,0,0,1-1.31-3.54V16.62a2.74,2.74,0,0,1,.34-1.36,7.61,7.61,0,0,1,.74-1.08c.28-.33.52-.65.75-1a1.65,1.65,0,0,0,.33-1v-.34a.49.49,0,0,0-.55-.55H354V8.91h1.85a5.43,5.43,0,0,1,1.53.18,2.44,2.44,0,0,1,1,.52,1.83,1.83,0,0,1,.51.85,4.74,4.74,0,0,1,.14,1.19v.6a2.33,2.33,0,0,1-.31,1.22,8,8,0,0,1-.7,1,10.51,10.51,0,0,0-.69,1,2.1,2.1,0,0,0-.32,1.13v1.27a2.31,2.31,0,0,0,.59,1.75,2.44,2.44,0,0,0,1.74.55,2.33,2.33,0,0,0,1.74-.6,2.63,2.63,0,0,0,.59-1.89V15.2a1.84,1.84,0,0,0-.25-1.1.94.94,0,0,0-.81-.34h-.36l-.48-1.15,2.55-3.7h3.26l-2.71,3.48a2.54,2.54,0,0,1,1.44,1.11,3.36,3.36,0,0,1,.48,1.77Z"/><path class="cls-3" d="M371.2,17.63a2.65,2.65,0,0,0,.58,1.94,2.22,2.22,0,0,0,1.63.58,3.36,3.36,0,0,0,1.93-.62A3.89,3.89,0,0,0,376.7,18v-9h3.12V22.35H377l-.33-1.65a4.56,4.56,0,0,1-.69.71,5.57,5.57,0,0,1-.93.62,5.74,5.74,0,0,1-1.14.44,4.69,4.69,0,0,1-1.3.17,4.63,4.63,0,0,1-3.35-1.17,5,5,0,0,1-1.21-3.7V8.91h3.12Z"/><path class="cls-3" d="M386.42,8.91V22.35H383.3V8.91Zm5.47,0V22.35h-3.12V8.91Z"/><path class="cls-3" d="M404.83,22.35l-1.9-5.73a3.09,3.09,0,0,0-.9-1.43,2.16,2.16,0,0,0-1.19-.47l-2.35,2v5.61h-3.12V8.91h3.12v4.56l5.45-4.56h3.93L403,13A3.63,3.63,0,0,1,404.84,14a5.79,5.79,0,0,1,1,1.82l2.16,6.5Z"/><path class="cls-3" d="M404,7.23V2.58h2.88V7.23Z"/><path class="cls-3" d="M412.89,22.35,408.83,8.91h3.07l3.29,11h.27a2,2,0,0,0,1.1-.34,3.3,3.3,0,0,0,.95-.95,4.81,4.81,0,0,0,.66-1.48,7.36,7.36,0,0,0,.24-1.94,5.2,5.2,0,0,0-.71-3.1,2.18,2.18,0,0,0-1.81-.93,5,5,0,0,0-1.61.31l-.46-2.28A4.22,4.22,0,0,1,415,8.76a7.31,7.31,0,0,1,1.43-.13,4.68,4.68,0,0,1,2,.43,4.43,4.43,0,0,1,1.62,1.27,6.14,6.14,0,0,1,1.08,2.05,8.73,8.73,0,0,1,.4,2.77,9.17,9.17,0,0,1-.46,3,6.56,6.56,0,0,1-1.28,2.26,5.51,5.51,0,0,1-2,1.43,6.05,6.05,0,0,1-2.47.49Z"/><path class="cls-3" d="M430.17,22.64a6.52,6.52,0,0,1-4.37-1.34,5.07,5.07,0,0,1-1.56-4.06V8.91h3.12v8.33a3,3,0,0,0,.74,2.15,2.8,2.8,0,0,0,2.07.76,2.76,2.76,0,0,0,2.06-.76,2.91,2.91,0,0,0,.75-2.15V4.35h3.12V17.24a5.07,5.07,0,0,1-1.56,4.06A6.52,6.52,0,0,1,430.17,22.64Z"/><path class="cls-3" d="M443.49,20.15a4.23,4.23,0,0,0,1.93-.36,1.17,1.17,0,0,0,.68-1.11,1.12,1.12,0,0,0-.25-.74,2.15,2.15,0,0,0-.67-.54,6.32,6.32,0,0,0-.94-.41l-1-.35c-.59-.19-1.15-.4-1.69-.63a5.9,5.9,0,0,1-1.4-.86,3.9,3.9,0,0,1-1-1.18,3.53,3.53,0,0,1-.36-1.65,2.94,2.94,0,0,1,.37-1.46,3.87,3.87,0,0,1,1-1.18,5.3,5.3,0,0,1,1.6-.78,7.22,7.22,0,0,1,2-.27,10,10,0,0,1,2.7.33,11.57,11.57,0,0,1,2.17.87L447.9,12a7.06,7.06,0,0,0-1.88-.7,9.37,9.37,0,0,0-2-.21,3.64,3.64,0,0,0-1.53.28.92.92,0,0,0-.63.9,1.22,1.22,0,0,0,.79,1.09,18,18,0,0,0,2.07.83,15,15,0,0,1,1.82.72,5.68,5.68,0,0,1,1.41.9,3.49,3.49,0,0,1,.9,1.22,4.25,4.25,0,0,1,.31,1.67,3.51,3.51,0,0,1-.34,1.57,3.4,3.4,0,0,1-1,1.24,4.7,4.7,0,0,1-1.68.81,8.35,8.35,0,0,1-2.37.29,11.4,11.4,0,0,1-2.68-.3,8.26,8.26,0,0,1-2.19-.85l.74-2.38a9,9,0,0,0,1.87.76A7.63,7.63,0,0,0,443.49,20.15Z"/><path class="cls-3" d="M454.12,11.43a.49.49,0,0,0,.55.56h2.45v2.35H454a3.69,3.69,0,0,1-1.07-.15,2.19,2.19,0,0,1-.85-.46,2.31,2.31,0,0,1-.57-.84,3.28,3.28,0,0,1-.22-1.29V10.5h2.88Zm0,6.48a.49.49,0,0,0,.55.56h2.45v2.35H454a3.69,3.69,0,0,1-1.07-.15,2.19,2.19,0,0,1-.85-.46,2.31,2.31,0,0,1-.57-.84,3.28,3.28,0,0,1-.22-1.29V17h2.88Z"/><path class="cls-3" d="M463.12,8.91V22.35H460V8.91Z"/><path class="cls-3" d="M475.46,13.69a3.54,3.54,0,0,0-.42-1.93,1.55,1.55,0,0,0-1.41-.64,4.43,4.43,0,0,0-2.11.55,6.61,6.61,0,0,0-1.8,1.47v9.21H466.6V8.91h2.78l.34,1.66a10.93,10.93,0,0,1,2-1.33,5.48,5.48,0,0,1,2.62-.61A4,4,0,0,1,477.4,9.9a5.2,5.2,0,0,1,1.18,3.65v8.8h-3.12Z"/><path class="cls-3" d="M485.06,16.4a2.35,2.35,0,0,1,.9-.93,3,3,0,0,1,1.64-.39h1.34v2.59h-1.41a2.74,2.74,0,0,0-1.68.44,2.08,2.08,0,0,0-.79,1.2v3h-3.13V14a5.34,5.34,0,0,1,.43-2.11,4.87,4.87,0,0,1,1.2-1.7,5.7,5.7,0,0,1,1.9-1.14A7.37,7.37,0,0,1,488,8.63a6.21,6.21,0,0,1,1.24.12,8.71,8.71,0,0,1,1.14.31L491.34,8h3.44l-2.14,2.57a4.93,4.93,0,0,1,1.13,1.68,5.08,5.08,0,0,1,.36,1.89v8.23H491v-8.2A3.29,3.29,0,0,0,490.8,13a2.88,2.88,0,0,0-.57-1,2.73,2.73,0,0,0-.93-.65,3.16,3.16,0,0,0-1.27-.24,2.89,2.89,0,0,0-2.21.83,2.93,2.93,0,0,0-.76,2.08Z"/><path class="cls-3" d="M498.4,22.35V7a5.93,5.93,0,0,1,.54-2.67,3.6,3.6,0,0,1,1.62-1.63h-4.63V.25h7.89V2.51a3.34,3.34,0,0,0-1.74,1.65,6,6,0,0,0-.54,2.64V22.35Z"/><path class="cls-3" d="M513.88,13.69a3.54,3.54,0,0,0-.42-1.93,1.54,1.54,0,0,0-1.4-.64,4.47,4.47,0,0,0-2.12.55,6.61,6.61,0,0,0-1.8,1.47v9.21H505V8.91h2.79l.33,1.66a11,11,0,0,1,2-1.33,5.44,5.44,0,0,1,2.61-.61,4,4,0,0,1,3.07,1.27A5.15,5.15,0,0,1,517,13.55v8.8h-3.12Z"/><path class="cls-3" d="M528.59,8.91h3.12v8.26a6.56,6.56,0,0,1-.36,2.23,4.38,4.38,0,0,1-1.13,1.73,5.24,5.24,0,0,1-2,1.12,9.76,9.76,0,0,1-3,.39,8.57,8.57,0,0,1-2.23-.27,5.22,5.22,0,0,1-1.74-.84,3.86,3.86,0,0,1-1.14-1.42,4.44,4.44,0,0,1-.41-2,3,3,0,0,1,.68-2,2.89,2.89,0,0,1,1.74-1,2.32,2.32,0,0,1-.88-.4,4.12,4.12,0,0,1-.79-.72,3.48,3.48,0,0,1-.55-1,3.25,3.25,0,0,1-.2-1.11,3.12,3.12,0,0,1,.25-1.26,3.05,3.05,0,0,1,.72-1A3.46,3.46,0,0,1,521.88,9a4.66,4.66,0,0,1,1.55-.25,9.32,9.32,0,0,1,1.6.13,5.2,5.2,0,0,1,1.19.38l-.32,2.32a4.18,4.18,0,0,0-.79-.24,4.85,4.85,0,0,0-.72-.07,1.92,1.92,0,0,0-1.21.33,1,1,0,0,0-.42.87,1.21,1.21,0,0,0,.53,1.07,1.92,1.92,0,0,0,1.15.37h1.82l.27,2.4h-1.64a2.22,2.22,0,0,0-1.52.48,1.68,1.68,0,0,0-.54,1.32,1.8,1.8,0,0,0,.72,1.53,2.92,2.92,0,0,0,1.8.54,3.29,3.29,0,0,0,2.42-.82,2.92,2.92,0,0,0,.82-2.18Z"/><path class="cls-4" d="M132.15,49.21V34.81a4.9,4.9,0,0,0-.87-2.91,4,4,0,0,0-.83-.86,4.65,4.65,0,0,0-.89-.52l-.05-.82a6.3,6.3,0,0,1,2.31-2.13,7.42,7.42,0,0,1,3.72-.87,11.31,11.31,0,0,1,2.53.24,14.73,14.73,0,0,1,1.91.58L139.47,30a8.33,8.33,0,0,0-1.89-.68,9.79,9.79,0,0,0-1.9-.19,4.39,4.39,0,0,0-1.88.34,4.29,4.29,0,0,0-1.17.74,5.64,5.64,0,0,1,2,1.87A5.35,5.35,0,0,1,135.3,35V49.21Z"/><path class="cls-4" d="M141.37,43.26a2.44,2.44,0,0,1,.9-.94,3.11,3.11,0,0,1,1.64-.38h1.35v2.59h-1.42a2.81,2.81,0,0,0-1.68.43,2.2,2.2,0,0,0-.79,1.2v3.05h-3.12V40.86a5.3,5.3,0,0,1,.42-2.11,4.91,4.91,0,0,1,1.2-1.71,5.64,5.64,0,0,1,1.91-1.14,8,8,0,0,1,5.13,0A5.74,5.74,0,0,1,148.82,37a4.91,4.91,0,0,1,1.2,1.71,5.3,5.3,0,0,1,.42,2.11v8.35h-3.12V40.88a2.93,2.93,0,0,0-.77-2.07,3,3,0,0,0-5.18,2.07Z"/><path class="cls-4" d="M157.35,47a4.2,4.2,0,0,0,1.93-.36,1.16,1.16,0,0,0,.69-1.1,1.11,1.11,0,0,0-.26-.74,2,2,0,0,0-.67-.54,5.67,5.67,0,0,0-.93-.41l-1-.35a15.22,15.22,0,0,1-1.69-.64A5.45,5.45,0,0,1,154,42a3.82,3.82,0,0,1-1-1.19,3.45,3.45,0,0,1-.36-1.64,2.91,2.91,0,0,1,.37-1.46,3.78,3.78,0,0,1,1.05-1.18,4.82,4.82,0,0,1,1.59-.78,7.22,7.22,0,0,1,2-.28,10,10,0,0,1,2.7.34,11.28,11.28,0,0,1,2.17.86l-.81,2.21a7.67,7.67,0,0,0-1.89-.71,10,10,0,0,0-2-.2,3.69,3.69,0,0,0-1.54.28.92.92,0,0,0-.63.9,1.22,1.22,0,0,0,.8,1.09,15.68,15.68,0,0,0,2.06.82,17.88,17.88,0,0,1,1.83.73,5.61,5.61,0,0,1,1.4.9,3.49,3.49,0,0,1,.9,1.22,4.08,4.08,0,0,1,.31,1.67,3.47,3.47,0,0,1-1.34,2.81,4.87,4.87,0,0,1-1.68.81,8.81,8.81,0,0,1-2.38.29,11.4,11.4,0,0,1-2.68-.3,8.26,8.26,0,0,1-2.19-.85l.74-2.38a9.37,9.37,0,0,0,1.88.76A7.5,7.5,0,0,0,157.35,47Z"/><path class="cls-4" d="M167.77,49.21l-4.06-13.44h3.07l3.29,10.95h.27a2.06,2.06,0,0,0,1.1-.34,3.3,3.3,0,0,0,.95-1,4.87,4.87,0,0,0,.66-1.49,7.23,7.23,0,0,0,.24-1.93,5.26,5.26,0,0,0-.71-3.11,2.2,2.2,0,0,0-1.81-.92,4.67,4.67,0,0,0-1.61.31L168.7,36a4.22,4.22,0,0,1,1.17-.4,8.17,8.17,0,0,1,1.43-.13,4.69,4.69,0,0,1,2,.44,4.32,4.32,0,0,1,1.62,1.27A6.14,6.14,0,0,1,176,39.24a9,9,0,0,1,.4,2.77,9.33,9.33,0,0,1-.46,3,6.52,6.52,0,0,1-1.28,2.27,5.6,5.6,0,0,1-2,1.43,6.09,6.09,0,0,1-2.47.49Z"/><path class="cls-4" d="M187.33,49.21V40.86a2.8,2.8,0,0,0-.78-2.16,3,3,0,0,0-2.13-.72,3.69,3.69,0,0,0-1,.13,4.4,4.4,0,0,0-.92.36,3.67,3.67,0,0,0-.74.53,2.23,2.23,0,0,0-.49.61l2,1.71a2.2,2.2,0,0,0-1.12.8,2.42,2.42,0,0,0-.39,1.45v5.64h-3.12V43.59a2.58,2.58,0,0,1,.36-1.36,2.83,2.83,0,0,1,.91-.94L178,39.71a4.68,4.68,0,0,1,.83-1.57,6.36,6.36,0,0,1,1.43-1.35,7.48,7.48,0,0,1,1.92-.95,7.28,7.28,0,0,1,2.32-.36,7.42,7.42,0,0,1,2.55.4A5.28,5.28,0,0,1,188.9,37a4.7,4.7,0,0,1,1.15,1.71,5.7,5.7,0,0,1,.4,2.17v8.35Z"/><path class="cls-4" d="M198.8,49.21V40.57c0-1.73-.72-2.59-2.16-2.59a6.3,6.3,0,0,0-2.13.38,9.48,9.48,0,0,0-1.86.92L191.86,37a10.36,10.36,0,0,1,2.29-1.1,8.44,8.44,0,0,1,2.75-.46,4.83,4.83,0,0,1,3.75,1.4,5.43,5.43,0,0,1,1.27,3.79v8.54Z"/><path class="cls-4" d="M208.83,47a4.2,4.2,0,0,0,1.93-.36,1.16,1.16,0,0,0,.69-1.1,1.11,1.11,0,0,0-.26-.74,2,2,0,0,0-.67-.54,5.67,5.67,0,0,0-.93-.41l-1-.35a16.2,16.2,0,0,1-1.7-.64,5.56,5.56,0,0,1-1.4-.85,3.82,3.82,0,0,1-1-1.19,3.45,3.45,0,0,1-.36-1.64,2.91,2.91,0,0,1,.37-1.46,3.78,3.78,0,0,1,1-1.18,4.82,4.82,0,0,1,1.59-.78,7.22,7.22,0,0,1,2-.28,10,10,0,0,1,2.7.34,11.28,11.28,0,0,1,2.17.86l-.81,2.21a7.67,7.67,0,0,0-1.89-.71,10.05,10.05,0,0,0-2-.2,3.67,3.67,0,0,0-1.53.28.92.92,0,0,0-.63.9,1.22,1.22,0,0,0,.8,1.09,15.68,15.68,0,0,0,2.06.82,16.8,16.8,0,0,1,1.82.73,5.5,5.5,0,0,1,1.41.9,3.49,3.49,0,0,1,.9,1.22,4.08,4.08,0,0,1,.31,1.67,3.47,3.47,0,0,1-1.34,2.81,4.87,4.87,0,0,1-1.68.81,8.86,8.86,0,0,1-2.38.29,11.4,11.4,0,0,1-2.68-.3,8.26,8.26,0,0,1-2.19-.85l.74-2.38a9.52,9.52,0,0,0,1.87.76A7.62,7.62,0,0,0,208.83,47Z"/><path class="cls-4" d="M220.78,47a4.2,4.2,0,0,0,1.93-.36,1.22,1.22,0,0,0,.44-1.84,2.2,2.2,0,0,0-.68-.54,5.67,5.67,0,0,0-.93-.41l-1-.35a16,16,0,0,1-1.69-.64,5.45,5.45,0,0,1-1.41-.85,3.82,3.82,0,0,1-1-1.19,3.45,3.45,0,0,1-.36-1.64,3,3,0,0,1,.37-1.46,3.78,3.78,0,0,1,1.05-1.18,4.92,4.92,0,0,1,1.59-.78,7.27,7.27,0,0,1,2-.28,9.85,9.85,0,0,1,2.7.34,11.28,11.28,0,0,1,2.17.86l-.81,2.21a7.52,7.52,0,0,0-1.89-.71,10,10,0,0,0-2-.2,3.72,3.72,0,0,0-1.54.28.92.92,0,0,0-.62.9,1.21,1.21,0,0,0,.79,1.09,16.27,16.27,0,0,0,2.06.82,17.88,17.88,0,0,1,1.83.73,5.61,5.61,0,0,1,1.4.9,3.49,3.49,0,0,1,.9,1.22,4.08,4.08,0,0,1,.31,1.67,3.68,3.68,0,0,1-.33,1.57,3.59,3.59,0,0,1-1,1.24,4.87,4.87,0,0,1-1.68.81,8.81,8.81,0,0,1-2.38.29,11.25,11.25,0,0,1-2.67-.3,8.2,8.2,0,0,1-2.2-.85l.74-2.38a9.61,9.61,0,0,0,1.88.76A7.5,7.5,0,0,0,220.78,47Z"/><path class="cls-4" d="M231.85,46.38c0,.26.12.38.36.38h1.39v2.45h-2.11a2.75,2.75,0,0,1-2.08-.71,2.63,2.63,0,0,1-.68-1.93v-3a2.58,2.58,0,0,1,.36-1.36,2.73,2.73,0,0,1,.91-.94l-1.95-1.58a4.68,4.68,0,0,1,.83-1.57,6.36,6.36,0,0,1,1.43-1.35,7.48,7.48,0,0,1,1.92-.95,7.34,7.34,0,0,1,2.33-.36,7.42,7.42,0,0,1,2.55.4A5.28,5.28,0,0,1,239,37a4.82,4.82,0,0,1,1.15,1.71,5.9,5.9,0,0,1,.39,2.17v8.35h-3.12V40.86a2.77,2.77,0,0,0-.79-2.16,3.05,3.05,0,0,0-2.13-.72,3.76,3.76,0,0,0-1,.13,4.32,4.32,0,0,0-.91.36,3.74,3.74,0,0,0-.75.53,2.43,2.43,0,0,0-.49.61l2,1.71a2.23,2.23,0,0,0-1.13.8,2.42,2.42,0,0,0-.38,1.45Z"/><path class="cls-4" d="M244.33,49.21V33.88a5.93,5.93,0,0,1,.54-2.67,3.6,3.6,0,0,1,1.62-1.63h-4.64V27.11h7.9v2.25A3.4,3.4,0,0,0,248,31a6,6,0,0,0-.54,2.64V49.21Z"/><path class="cls-4" d="M259.33,36.44l1.77,5.93a13.84,13.84,0,0,1,.45,1.89c.12.69.24,1.54.37,2.55H262c0-.94,0-1.75.05-2.42s.09-1.35.17-2l1.12-11.16h2.91l-2.16,18h-3.34l-1.89-6.14c-.2-.67-.38-1.37-.56-2.1a18.63,18.63,0,0,1-.38-2.17h-.07c-.08.72-.18,1.44-.3,2.17a19,19,0,0,1-.47,2.1l-1.9,6.14h-3.43l-2.28-13.44h3l1.06,6.6c.08.47.15,1.05.22,1.77s.12,1.6.14,2.67H254c.05-.53.1-1,.17-1.43s.13-.81.2-1.16.14-.68.22-1,.14-.59.22-.88l1.61-5.93Z"/><path class="cls-4" d="M277,36.44l1.77,5.93a13.84,13.84,0,0,1,.45,1.89c.12.69.24,1.54.37,2.55h.07c0-.94,0-1.75.05-2.42s.09-1.35.17-2L281,31.21h2.91l-2.16,18h-3.34l-1.89-6.14c-.2-.67-.38-1.37-.56-2.1a18.63,18.63,0,0,1-.38-2.17h-.07c-.08.72-.18,1.44-.3,2.17a19,19,0,0,1-.47,2.1l-1.9,6.14h-3.43L267.1,35.77h3l1.06,6.6c.08.47.15,1.05.22,1.77s.12,1.6.14,2.67h.07c.05-.53.1-1,.17-1.43s.13-.81.2-1.16.14-.68.22-1,.14-.59.22-.88l1.61-5.93Z"/><path class="cls-4" d="M275.14,31.33c0,.24.11.36.34.36h2.8v2.4H274a1.31,1.31,0,0,1-.9-.31,1.11,1.11,0,0,1-.34-.86v-.6c0-.25-.12-.36-.34-.36H271V29.48h2.57a1.8,1.8,0,0,1,1.14.33,1.19,1.19,0,0,1,.42,1Z"/><path class="cls-4" d="M290.93,49.21V40.57c0-1.73-.72-2.59-2.16-2.59a6.24,6.24,0,0,0-2.12.38,9,9,0,0,0-1.86.92L284,37a10.15,10.15,0,0,1,2.29-1.1,8.4,8.4,0,0,1,2.75-.46,4.81,4.81,0,0,1,3.74,1.4,5.38,5.38,0,0,1,1.27,3.79v8.54Z"/><path class="cls-4" d="M305.07,49.21V43.33h-2.93a4.82,4.82,0,0,0-2.15.4,1.47,1.47,0,0,0-.8,1.45,1.72,1.72,0,0,0,.55,1.36,2,2,0,0,0,1.37.49,4.73,4.73,0,0,0,.9-.09,3.33,3.33,0,0,0,.95-.32l.5,2.28a5.45,5.45,0,0,1-1.28.41,7.88,7.88,0,0,1-1.41.12,5.93,5.93,0,0,1-1.82-.27,4.17,4.17,0,0,1-1.47-.79,3.74,3.74,0,0,1-1-1.32,4.42,4.42,0,0,1-.36-1.85A3.62,3.62,0,0,1,297.69,42a8.61,8.61,0,0,1,4.69-1h2.69v-.45a3,3,0,0,0-.17-1,2.38,2.38,0,0,0-.5-.82,2.42,2.42,0,0,0-.86-.58,3.15,3.15,0,0,0-1.21-.22,7.11,7.11,0,0,0-2.6.44,8.87,8.87,0,0,0-2.08,1.12l-1-2.16A9.38,9.38,0,0,1,299.11,36a9.6,9.6,0,0,1,3.37-.56,6.7,6.7,0,0,1,1.09.1,4.67,4.67,0,0,1,.95.26l.81-1h3.43l-2,2.35a5.13,5.13,0,0,1,1,1.51,4.63,4.63,0,0,1,.35,1.78v8.73Z"/><path class="cls-4" d="M316.47,49.21V40.57c0-1.73-.72-2.59-2.16-2.59a6.2,6.2,0,0,0-2.12.38,9.3,9.3,0,0,0-1.87.92L309.53,37a10.36,10.36,0,0,1,2.29-1.1,8.44,8.44,0,0,1,2.75-.46,4.83,4.83,0,0,1,3.75,1.4,5.43,5.43,0,0,1,1.27,3.79v8.54Z"/><path class="cls-4" d="M330.7,35.77h3.12V44a6.6,6.6,0,0,1-.36,2.23A4.38,4.38,0,0,1,332.33,48a5.09,5.09,0,0,1-2,1.11,9.48,9.48,0,0,1-2.95.4,8.15,8.15,0,0,1-2.23-.28,4.7,4.7,0,0,1-1.74-.84A3.75,3.75,0,0,1,322.28,47a4.44,4.44,0,0,1-.41-2,3,3,0,0,1,.68-2,2.89,2.89,0,0,1,1.74-1,2.61,2.61,0,0,1-.89-.4,4.39,4.39,0,0,1-.78-.72,3.48,3.48,0,0,1-.55-1,3.25,3.25,0,0,1-.2-1.11,3.12,3.12,0,0,1,.25-1.26,2.86,2.86,0,0,1,.72-1,3.46,3.46,0,0,1,1.15-.69,4.42,4.42,0,0,1,1.55-.25,8.42,8.42,0,0,1,1.6.13,5,5,0,0,1,1.18.37L328,38.41a4.18,4.18,0,0,0-.79-.24,3.8,3.8,0,0,0-.72-.07,2,2,0,0,0-1.21.32,1.06,1.06,0,0,0-.42.88,1.22,1.22,0,0,0,.53,1.07,1.92,1.92,0,0,0,1.15.37h1.82l.27,2.4H327a2.22,2.22,0,0,0-1.52.48,1.68,1.68,0,0,0-.54,1.32,1.78,1.78,0,0,0,.72,1.52,2.92,2.92,0,0,0,1.8.54,3.29,3.29,0,0,0,2.42-.81A2.94,2.94,0,0,0,330.7,44Z"/><path class="cls-4" d="M344.84,49.21V43.33h-2.93a4.82,4.82,0,0,0-2.15.4,1.46,1.46,0,0,0-.8,1.45,1.72,1.72,0,0,0,.55,1.36,2,2,0,0,0,1.37.49,4.9,4.9,0,0,0,.9-.09,3.27,3.27,0,0,0,.94-.32l.51,2.28a5.53,5.53,0,0,1-1.29.41,7.77,7.77,0,0,1-1.4.12,5.89,5.89,0,0,1-1.82-.27,4.17,4.17,0,0,1-1.47-.79,3.74,3.74,0,0,1-1-1.32,4.42,4.42,0,0,1-.36-1.85A3.6,3.6,0,0,1,337.46,42a8.61,8.61,0,0,1,4.69-1h2.69v-.45a3,3,0,0,0-.17-1,2.26,2.26,0,0,0-.51-.82,2.29,2.29,0,0,0-.85-.58,3.19,3.19,0,0,0-1.21-.22,7.11,7.11,0,0,0-2.6.44,8.87,8.87,0,0,0-2.08,1.12l-1-2.16A9.46,9.46,0,0,1,338.87,36a9.68,9.68,0,0,1,3.37-.56,6.72,6.72,0,0,1,1.1.1,4.39,4.39,0,0,1,.94.26l.82-1h3.43l-2,2.35a5.16,5.16,0,0,1,1,1.51,4.62,4.62,0,0,1,.34,1.78v8.73Z"/><path class="cls-4" d="M336.72,34.09V31.74h8.14V29.46h2.79v4.63Z"/><path class="cls-4" d="M358.66,49.21V43.33h-2.93a4.85,4.85,0,0,0-2.15.4,1.47,1.47,0,0,0-.8,1.45,1.72,1.72,0,0,0,.55,1.36,2,2,0,0,0,1.37.49,4.73,4.73,0,0,0,.9-.09,3.33,3.33,0,0,0,.95-.32l.5,2.28a5.31,5.31,0,0,1-1.28.41,7.88,7.88,0,0,1-1.41.12,5.93,5.93,0,0,1-1.82-.27,4,4,0,0,1-1.46-.79,3.65,3.65,0,0,1-1-1.32,4.42,4.42,0,0,1-.36-1.85A3.62,3.62,0,0,1,351.28,42a8.64,8.64,0,0,1,4.69-1h2.69v-.45a3,3,0,0,0-.17-1,2.38,2.38,0,0,0-.5-.82,2.47,2.47,0,0,0-.85-.58,3.24,3.24,0,0,0-1.22-.22,7.11,7.11,0,0,0-2.6.44,9.07,9.07,0,0,0-2.08,1.12l-1-2.16A9.54,9.54,0,0,1,352.7,36a9.64,9.64,0,0,1,3.37-.56,6.59,6.59,0,0,1,1.09.1,4.49,4.49,0,0,1,.95.26l.81-1h3.44l-2,2.35a5.13,5.13,0,0,1,1,1.51,4.63,4.63,0,0,1,.35,1.78v8.73Z"/><path class="cls-4" d="M358.83,31.33q0,.36.33.36H362v2.4H357.7a1.28,1.28,0,0,1-.9-.31,1.11,1.11,0,0,1-.35-.86v-.6c0-.25-.11-.36-.33-.36H354.7V29.48h2.57a1.8,1.8,0,0,1,1.14.33,1.19,1.19,0,0,1,.42,1Z"/><path class="cls-4" d="M373,35.77h3.12v8.62a5.4,5.4,0,0,1-1.22,3.83,5,5,0,0,1-4.68,1.1,5.85,5.85,0,0,1-1.12-.46,5.1,5.1,0,0,1-.92-.62,4.73,4.73,0,0,1-.67-.68l-.34,1.65H364.4V35.77h3.12v9a3.53,3.53,0,0,0,.55.85,3.67,3.67,0,0,0,.77.7,3.8,3.8,0,0,0,.92.47,3.12,3.12,0,0,0,1,.16Q373,47,373,44.24Z"/><path class="cls-4" d="M384.89,41.8v2.44h-7V41.8Z"/><path class="cls-4" d="M393.1,37l2.54-1.52A4.79,4.79,0,0,1,398.4,37a4.42,4.42,0,0,1,.92,2.86v9.31H396.2V39.88c0-1-.36-1.52-1.08-1.66l-2,1.15-1.92-1.1a3.09,3.09,0,0,0-1.46,1.61,6.74,6.74,0,0,0-.51,2.78,7,7,0,0,0,.25,2,3.92,3.92,0,0,0,.66,1.31,2.39,2.39,0,0,0,.9.72,2.36,2.36,0,0,0,1,.22,6.44,6.44,0,0,0,.9-.07,4.06,4.06,0,0,0,.9-.29l.55,2.25a3.83,3.83,0,0,1-1.12.46,6.55,6.55,0,0,1-1.52.14,6,6,0,0,1-2.15-.39,4.75,4.75,0,0,1-1.79-1.23,6,6,0,0,1-1.22-2.1,9.76,9.76,0,0,1-.13-5.48,7.69,7.69,0,0,1,.93-2.13,6.63,6.63,0,0,1,1.49-1.63,5.7,5.7,0,0,1,2-1Z"/><path class="cls-4" d="M404.43,38.29a.48.48,0,0,0,.55.55h2.45V41.2h-3.17a3.69,3.69,0,0,1-1.07-.15,2,2,0,0,1-.85-.47,2.29,2.29,0,0,1-.58-.84,3.39,3.39,0,0,1-.21-1.28v-1.1h2.88Zm0,6.48a.48.48,0,0,0,.55.55h2.45v2.36h-3.17a3.69,3.69,0,0,1-1.07-.15,2,2,0,0,1-.85-.47,2.29,2.29,0,0,1-.58-.84,3.39,3.39,0,0,1-.21-1.28v-1.1h2.88Z"/><path class="cls-4" d="M409.52,45.85a10,10,0,0,0,1.78.82,6.14,6.14,0,0,0,2,.33,3.14,3.14,0,0,0,2.63-1.14,5.35,5.35,0,0,0,.9-3.37,5.15,5.15,0,0,0-.95-3.42,3.25,3.25,0,0,0-2.6-1.09,5.45,5.45,0,0,0-1.93.34,7.37,7.37,0,0,0-1.81,1l-.73-2.36a8.88,8.88,0,0,1,2.24-1,8.17,8.17,0,0,1,2.54-.4,6.13,6.13,0,0,1,4.69,1.78,7.11,7.11,0,0,1,1.67,5.06q0,3.6-1.69,5.39a6.16,6.16,0,0,1-4.69,1.79,11.33,11.33,0,0,1-2.68-.31,6.3,6.3,0,0,1-2.08-.91Z"/><path class="cls-4" d="M415.9,31.19a.48.48,0,0,0,.55.55h6.15v2.35h-6.87a4.07,4.07,0,0,1-1.07-.14,2.21,2.21,0,0,1-.85-.47,2.47,2.47,0,0,1-.58-.84,3.39,3.39,0,0,1-.21-1.28v-1.2h2.88Z"/><path class="cls-4" d="M425.09,44.48a2.67,2.67,0,0,0,.58,2,2.2,2.2,0,0,0,1.63.57,3.34,3.34,0,0,0,1.93-.61,4,4,0,0,0,1.36-1.57v-9h3.12V49.21h-2.79l-.33-1.65a4.12,4.12,0,0,1-.69.7,5.62,5.62,0,0,1-.93.63,5.74,5.74,0,0,1-1.14.44,5.09,5.09,0,0,1-1.3.17,4.6,4.6,0,0,1-3.35-1.18A4.92,4.92,0,0,1,422,44.63V35.77h3.12Z"/><path class="cls-4" d="M439.44,43.91c-.29,0-.43.15-.43.45v.08c0,1.71.95,2.56,2.86,2.56a3.4,3.4,0,0,0,2.69-1.12,5.33,5.33,0,0,0,1-3.53,4.54,4.54,0,0,0-1.07-3.24,3.68,3.68,0,0,0-2.8-1.13,6.45,6.45,0,0,0-2.64.52A9.54,9.54,0,0,0,437,39.71l-1-2.33a11.84,11.84,0,0,1,2.47-1.31,9.39,9.39,0,0,1,3.48-.59,8.08,8.08,0,0,1,2.74.46,5.85,5.85,0,0,1,2.14,1.34,6.11,6.11,0,0,1,1.4,2.19,8.48,8.48,0,0,1,.49,3,7.22,7.22,0,0,1-1.76,5.31,6.51,6.51,0,0,1-4.79,1.75,9,9,0,0,1-2.69-.36,5.14,5.14,0,0,1-1.91-1,4.47,4.47,0,0,1-1.14-1.61,5.29,5.29,0,0,1-.38-2.06V44a2.91,2.91,0,0,1,.57-2,2.42,2.42,0,0,1,1.88-.65h3.07v2.5Z"/><path class="cls-4" d="M453.75,43.91a.39.39,0,0,0-.44.45v.08c0,1.71,1,2.56,2.86,2.56a3.39,3.39,0,0,0,2.69-1.12,5.33,5.33,0,0,0,1-3.53,4.49,4.49,0,0,0-1.07-3.24A3.67,3.67,0,0,0,456,38a6.38,6.38,0,0,0-2.64.52,9.62,9.62,0,0,0-2.09,1.21l-1-2.33a11.84,11.84,0,0,1,2.47-1.31,9.39,9.39,0,0,1,3.48-.59,8,8,0,0,1,2.74.46,5.89,5.89,0,0,1,2.15,1.34,6.08,6.08,0,0,1,1.39,2.19,8.26,8.26,0,0,1,.49,3,7.22,7.22,0,0,1-1.76,5.31,6.49,6.49,0,0,1-4.79,1.75,9.08,9.08,0,0,1-2.69-.36,5.14,5.14,0,0,1-1.91-1,4.47,4.47,0,0,1-1.14-1.61,5.47,5.47,0,0,1-.38-2.06V44a2.86,2.86,0,0,1,.58-2,2.38,2.38,0,0,1,1.87-.65h3.07v2.5Z"/><path class="cls-4" d="M473.93,49.21V40.86a2.8,2.8,0,0,0-.78-2.16A3,3,0,0,0,471,38a3.76,3.76,0,0,0-1,.13,4.32,4.32,0,0,0-.91.36,3.74,3.74,0,0,0-.75.53,2.43,2.43,0,0,0-.49.61l2,1.71a2.23,2.23,0,0,0-1.13.8,2.42,2.42,0,0,0-.38,1.45v5.64h-3.12V43.59a2.58,2.58,0,0,1,.36-1.36,2.73,2.73,0,0,1,.91-.94l-2-1.58a4.68,4.68,0,0,1,.83-1.57,6.36,6.36,0,0,1,1.43-1.35,7.48,7.48,0,0,1,1.92-.95,8,8,0,0,1,4.87,0A5.19,5.19,0,0,1,475.5,37a4.57,4.57,0,0,1,1.15,1.71,5.7,5.7,0,0,1,.4,2.17v8.35Z"/></svg>